<mxfile host="Electron" modified="2024-10-13T08:36:34.227Z" agent="Mozilla/5.0 (X11; Linux x86_64) AppleWebKit/537.36 (KHTML, like Gecko) draw.io/24.6.1 Chrome/124.0.6367.207 Electron/30.0.6 Safari/537.36" etag="rMQsLU3ZrrLPiMT2GwC1" version="24.6.1" type="device">
  <diagram name="第 1 页" id="hqgwbV8043JRgQNjyBeP">
    <mxGraphModel dx="1184" dy="856" grid="1" gridSize="10" guides="1" tooltips="1" connect="1" arrows="1" fold="1" page="1" pageScale="1" pageWidth="827" pageHeight="1169" math="0" shadow="0">
      <root>
        <mxCell id="0" />
        <mxCell id="1" parent="0" />
      </root>
    </mxGraphModel>
  </diagram>
</mxfile>
